<svg width="16" height="29" viewBox="0 0 16 29" fill="none" xmlns="http://www.w3.org/2000/svg">
<path d="M9 1.5C9 0.947715 8.55228 0.5 8 0.5C7.44772 0.5 7 0.947715 7 1.5L9 1.5ZM7.29289 28.2071C7.68342 28.5976 8.31658 28.5976 8.70711 28.2071L15.0711 21.8431C15.4616 21.4526 15.4616 20.8195 15.0711 20.4289C14.6805 20.0384 14.0474 20.0384 13.6569 20.4289L8 26.0858L2.34315 20.4289C1.95262 20.0384 1.31946 20.0384 0.928933 20.4289C0.538409 20.8195 0.538409 21.4526 0.928933 21.8431L7.29289 28.2071ZM7 1.5L7 27.5L9 27.5L9 1.5L7 1.5Z" fill="#01CF72"/>
</svg>
