<svg width="176" height="78" viewBox="0 0 176 78" fill="none" xmlns="http://www.w3.org/2000/svg">
<path d="M6.93944 62.7067L169.738 66.5805V38.3157H5.37303L6.93944 62.7067Z" fill="#263238"/>
<path opacity="0.5" d="M6.93944 62.7067L169.738 66.5805V38.3157H5.37303L6.93944 62.7067Z" fill="black"/>
<path d="M176 45.5673V59.9024C176.001 62.9733 174.03 65.686 171.139 66.5915L169.988 66.9466C169.28 67.1695 168.54 67.2737 167.799 67.2554L160.195 67.0753C161.099 63.8674 161.178 60.4784 160.426 57.2304C157.993 46.718 147.626 40.1984 137.27 42.6682C126.914 45.138 120.491 55.6621 122.924 66.1745L45.5587 64.3068C45.6838 63.3893 45.7447 62.4641 45.7407 61.5379C45.6943 50.7395 37.0332 42.0237 26.3955 42.0708C15.7578 42.1179 7.17172 50.9099 7.21814 61.7083C7.21814 62.0892 7.24841 62.4648 7.24841 62.8403C7.14703 62.7992 7.04071 62.7581 6.93933 62.7067L4.29333 61.5078C1.68385 60.311 0.00621033 57.6742 0.00523376 54.7673V25.5723C0.00489807 22.8262 1.50381 20.3059 3.89803 19.0272L23.7831 8.41225C24.0108 8.28929 24.1856 8.08514 24.2745 7.83956C24.4743 7.28726 24.1952 6.67549 23.6511 6.47268L21.218 5.5876C21.014 5.51643 20.8672 5.334 20.8395 5.11649C20.7994 4.80074 21.0186 4.51173 21.3296 4.47097C30.7778 3.13316 67.5269 -1.74466 86.8442 0.652986C109.127 3.42117 130.482 23.051 130.482 23.051C146.879 22.4286 162.187 28.2222 168.777 31.1294C170.904 32.0719 172.54 33.8828 173.283 36.1154L175.539 42.8971C175.834 43.7557 175.989 44.6575 176 45.5673Z" fill="white"/>
<path d="M45.5383 64.3068C45.6506 63.4454 45.7065 62.5774 45.7056 61.7083C45.7056 61.266 45.6904 60.8286 45.6651 60.3912L59.6551 54.5819C60.474 54.2434 61.3578 54.0974 62.2402 54.1549L110.901 57.3965C111.696 57.4477 112.473 57.6648 113.182 58.0347L122.427 62.8611C122.493 63.977 122.651 65.0853 122.899 66.1749L45.5383 64.3068Z" fill="#263238"/>
<path d="M1.00136e-05 54.7673V54.0212L7.91235 56.4807C7.45089 58.1837 7.21751 59.9422 7.21784 61.7083C7.21784 62.0892 7.24813 62.4648 7.24813 62.8403C7.14676 62.7992 7.04044 62.7581 6.93906 62.7067L4.28811 61.5079C1.67864 60.311 0.000997543 57.6742 1.00136e-05 54.7673Z" fill="#263238"/>
<path d="M173.754 65.0479C172.999 65.7569 172.097 66.2844 171.114 66.5915L169.963 66.9467C169.254 67.1695 168.515 67.2738 167.773 67.2554L160.17 67.0753C160.445 66.0997 160.643 65.1037 160.763 64.0959L173.754 65.0479Z" fill="#263238"/>
<path d="M26.4291 40.319C27.3036 40.3186 28.1772 40.3738 29.0448 40.4837C40.5896 41.9471 48.7798 52.6339 47.3381 64.3532L45.5133 64.3068C45.6384 63.3893 45.6993 62.4641 45.6953 61.5379C45.6489 50.7395 36.9878 42.0237 26.3501 42.0708C15.7124 42.1179 7.12634 50.9099 7.17274 61.7083C7.17274 62.0892 7.20302 62.4647 7.20302 62.8403C7.10164 62.7992 6.99532 62.7581 6.89394 62.7067L5.37329 62.007C5.37329 61.9041 5.37329 61.8065 5.37329 61.7086C5.38712 49.8995 14.8162 40.3303 26.4495 40.319H26.4291Z" fill="#263238"/>
<path d="M141.648 40.319C143.448 40.3186 145.24 40.5522 146.981 41.0139C158.24 44.0006 164.982 55.6871 162.04 67.1164L160.17 67.0753C161.073 63.8674 161.152 60.4784 160.4 57.2304C157.967 46.718 147.6 40.1984 137.244 42.6682C126.888 45.138 120.465 55.6621 122.899 66.1745L121.033 66.128C120.73 64.6716 120.577 63.1868 120.577 61.6979C120.58 49.8882 130.014 40.3163 141.648 40.319Z" fill="#263238"/>
<path d="M123.312 23.8729C123.537 24.0664 123.698 24.3447 123.765 24.6595C123.924 25.4055 123.532 26.1573 122.888 26.3387L114.846 28.6268C114.133 28.8316 113.394 28.8884 112.663 28.7942L53.0343 21.2949C51.5831 21.1078 50.2307 20.346 49.2057 19.1381L41.3835 9.88737C41.1228 9.58165 40.9579 9.18438 40.9148 8.75871C40.8082 7.7059 41.4586 6.75633 42.3677 6.63738C56.6464 4.71553 74.7 2.96808 86.1 4.38208C101.041 6.23276 116.084 17.6333 123.312 23.8729Z" fill="white"/>
<path opacity="0.8" d="M123.044 23.873C123.269 24.0664 123.429 24.3447 123.496 24.6595C123.656 25.4056 123.263 26.1573 122.619 26.3388L114.577 28.6268C113.864 28.8316 113.126 28.8884 112.395 28.7942L54.1008 24.738C52.6496 24.5509 50.4068 21.8442 48.8206 19.6464L41.115 9.88773C40.8543 9.58201 40.6894 9.18474 40.6463 8.75907C40.5396 7.70626 41.19 6.7567 42.0991 6.63775C56.3778 4.71589 74.4315 2.96845 85.8315 4.38244C100.772 6.2328 115.815 17.6333 123.044 23.873Z" fill="#AEAEAE"/>
<g opacity="0.3">
<path d="M84.0906 29.6399C84.4724 29.5002 84.6705 29.0729 84.533 28.685C84.3638 28.2049 83.9247 27.8771 83.4227 27.8567L76.3264 27.553C76.2306 27.5486 76.1345 27.5633 76.0443 27.5961C75.6595 27.7358 75.4591 28.1658 75.5967 28.5563C75.7688 29.0361 76.2092 29.3632 76.7118 29.3846L83.8082 29.683C83.9043 29.688 84.0001 29.6733 84.0906 29.6399Z" fill="black"/>
</g>
<path d="M31.3162 9.00127C31.9439 9.56793 32.0002 10.5436 31.442 11.1804L29.759 13.0378C29.5658 13.2459 29.3206 13.3973 29.0494 13.4751L8.43463 19.2791C8.07586 19.3773 7.70624 19.4275 7.33463 19.4285H3.23907C3.45203 19.2845 3.66991 19.1505 3.898 19.0272L23.783 8.40186L23.7844 8.40119C24.2863 8.1496 24.4924 7.53248 24.2445 7.02295L30.7024 8.66448C30.9298 8.72662 31.1401 8.84223 31.3162 9.00127Z" fill="white"/>
<path d="M159.686 33.8611L166.719 33.0836L170.761 34.7616C171.61 35.1144 172.245 35.8548 172.471 36.7579C172.604 37.2802 172.529 37.8345 172.264 38.3016L172.192 38.4252C171.741 39.215 170.864 39.6497 169.972 39.5264L165.917 38.9604C165.522 38.903 165.147 38.7456 164.827 38.5024L160.149 34.9006L159.686 33.8611Z" fill="#AEAEAE"/>
<path d="M130.467 23.0406L129.346 23.3647C128.476 23.617 127.539 23.4125 126.848 22.8195C120.329 17.2213 108.995 8.63342 96.7643 4.63033C96.71 4.61229 96.6646 4.5742 96.6366 4.52374C96.575 4.41215 96.6139 4.27115 96.7238 4.20867L98.2445 3.41614C115.889 9.62642 130.467 23.0406 130.467 23.0406Z" fill="white"/>
<path opacity="0.8" d="M130.467 23.0406L129.346 23.3647C128.476 23.617 127.539 23.4125 126.848 22.8195C120.329 17.2213 108.995 8.63342 96.7643 4.63033C96.71 4.61229 96.6646 4.5742 96.6366 4.52374C96.575 4.41215 96.6139 4.27115 96.7238 4.20867L98.2445 3.41614C115.889 9.62642 130.467 23.0406 130.467 23.0406Z" fill="#AEAEAE"/>
<path opacity="0.2" d="M63.6189 30.5995L122.899 34.9026L121.783 42.324C121.442 44.5977 120.611 46.7672 119.351 48.6787L114.397 56.1954L63.8016 49.2513L39.8819 30.5991H63.6189V30.5995Z" fill="#AEAEAE"/>
<path d="M26.4475 77.997C17.5845 77.997 10.3997 70.7036 10.3997 61.7067C10.3997 52.7098 17.5845 45.4164 26.4475 45.4164C35.3105 45.4164 42.4954 52.7098 42.4954 61.7067C42.4954 70.7036 35.3105 77.997 26.4475 77.997Z" fill="#263238"/>
<path opacity="0.4" d="M26.4475 71.6938C21.0139 71.6938 16.609 67.2224 16.609 61.7066C16.609 56.1909 21.0139 51.7195 26.4475 51.7195C31.8812 51.7195 36.286 56.1909 36.286 61.7066C36.286 67.2224 31.8812 71.6938 26.4475 71.6938Z" fill="#AEAEAE"/>
<g opacity="0.3">
<path d="M25.6586 53.522V58.6417C25.6586 59.0821 26.0104 59.4393 26.4443 59.4393H26.4492C26.883 59.4393 27.2349 59.0821 27.2349 58.6417V53.522C27.2349 53.0817 26.883 52.7245 26.4492 52.7245H26.4443C26.0104 52.7245 25.6586 53.0817 25.6586 53.522Z" fill="#AEAEAE"/>
</g>
<g opacity="0.3">
<path d="M25.6586 64.7752V69.8949C25.6586 70.3353 26.0104 70.6925 26.4443 70.6925H26.4492C26.883 70.6925 27.2349 70.3353 27.2349 69.8949V64.7752C27.2349 64.3348 26.883 63.9777 26.4492 63.9777H26.4443C26.0104 63.9777 25.6586 64.3348 25.6586 64.7752Z" fill="#AEAEAE"/>
</g>
<g opacity="0.3">
<path d="M23.4415 60.8694C23.8183 61.0875 24.2982 60.9539 24.5132 60.5713C24.5135 60.5706 24.5138 60.57 24.5145 60.5693C24.7304 60.1874 24.6007 59.6999 24.2245 59.4804L19.8604 56.9077C19.4825 56.6862 18.9993 56.8175 18.7807 57.2011C18.5661 57.5836 18.6948 58.0701 19.0697 58.292L23.4339 60.8647C23.4359 60.8664 23.4388 60.8677 23.4415 60.8694Z" fill="#AEAEAE"/>
</g>
<g opacity="0.3">
<path d="M33.0407 66.4742C33.4169 66.6934 33.8971 66.5617 34.1133 66.1798C34.1137 66.1792 34.114 66.1785 34.1143 66.1778C34.3303 65.7959 34.2006 65.3084 33.8244 65.0889L29.4602 62.5162L29.4599 62.5159C29.0847 62.2943 28.6038 62.4236 28.3859 62.8042C28.167 63.1864 28.2937 63.6766 28.6696 63.9001L33.039 66.4728C33.0394 66.4735 33.04 66.4738 33.0407 66.4742Z" fill="#AEAEAE"/>
</g>
<g opacity="0.3">
<path d="M19.8596 66.4939L24.2237 63.9212C24.6016 63.6993 24.7306 63.2088 24.5128 62.8253C24.2926 62.4437 23.8097 62.3147 23.4331 62.5372L19.069 65.11C18.6944 65.3315 18.5654 65.8183 18.78 66.2009C18.9986 66.5838 19.4817 66.7151 19.8596 66.4939Z" fill="#AEAEAE"/>
</g>
<g opacity="0.3">
<path d="M28.3866 60.5734C28.6038 60.9546 29.0843 61.0852 29.4599 60.8647L33.8241 58.292C33.8247 58.2917 33.8254 58.2913 33.826 58.2907C34.2016 58.0701 34.33 57.5823 34.113 57.2011C34.1127 57.2004 34.1124 57.1998 34.1117 57.1991C33.8945 56.8179 33.4139 56.6872 33.0384 56.9077L28.669 59.4805L28.6686 59.4808C28.2937 59.7027 28.1667 60.1908 28.3852 60.5714C28.3859 60.572 28.3862 60.5727 28.3866 60.5734Z" fill="#AEAEAE"/>
</g>
<path d="M27.7671 61.7033C27.7671 60.9646 27.1769 60.3655 26.4492 60.3655C26.4476 60.3655 26.4459 60.3655 26.4443 60.3655C25.7136 60.3655 25.1214 60.9669 25.1214 61.7083C25.1214 62.4501 25.7136 63.0511 26.4443 63.0511C27.175 63.0511 27.7671 62.4501 27.7671 61.7083C27.7671 61.7066 27.7671 61.705 27.7671 61.7033Z" fill="#263238"/>
<path d="M141.649 78C132.786 78 125.601 70.7066 125.601 61.7096C125.601 52.7127 132.786 45.4193 141.649 45.4193C150.512 45.4193 157.697 52.7127 157.697 61.7096C157.697 70.7066 150.512 78 141.649 78Z" fill="#263238"/>
<path opacity="0.4" d="M141.649 71.6969C136.215 71.6969 131.811 67.2255 131.811 61.7097C131.811 56.1939 136.215 51.7225 141.649 51.7225C147.083 51.7225 151.488 56.1939 151.488 61.7097C151.488 67.2255 147.083 71.6969 141.649 71.6969Z" fill="#AEAEAE"/>
<g opacity="0.3">
<path d="M140.863 53.522V58.6417C140.863 59.0821 141.215 59.4393 141.648 59.4393H141.653C142.087 59.4393 142.439 59.0821 142.439 58.6417V53.522C142.439 53.0817 142.087 52.7245 141.653 52.7245H141.648C141.215 52.7245 140.863 53.0817 140.863 53.522Z" fill="#AEAEAE"/>
</g>
<g opacity="0.3">
<path d="M140.863 64.7752V69.8949C140.863 70.3353 141.215 70.6925 141.648 70.6925H141.653C142.087 70.6925 142.439 70.3353 142.439 69.8949V64.7752C142.439 64.3348 142.087 63.9777 141.653 63.9777H141.648C141.215 63.9777 140.863 64.3348 140.863 64.7752Z" fill="#AEAEAE"/>
</g>
<g opacity="0.3">
<path d="M138.649 60.871C139.024 61.0865 139.5 60.9522 139.712 60.5713L139.713 60.571C139.931 60.1901 139.804 59.7019 139.429 59.4807L135.059 56.908C135.059 56.9077 135.058 56.9074 135.057 56.907C134.681 56.6878 134.201 56.8195 133.985 57.2014C133.984 57.202 133.984 57.2027 133.984 57.2034C133.768 57.5853 133.897 58.0728 134.274 58.2923L138.638 60.865C138.641 60.8667 138.645 60.869 138.649 60.871Z" fill="#AEAEAE"/>
</g>
<g opacity="0.3">
<path d="M149.317 66.1798C149.318 66.1792 149.318 66.1785 149.319 66.1778C149.535 65.7959 149.405 65.3085 149.029 65.0889L144.665 62.5162C144.288 62.294 143.805 62.4227 143.585 62.8042C143.367 63.1878 143.496 63.6783 143.874 63.9001L148.238 66.4729C148.616 66.6944 149.099 66.5634 149.317 66.1798Z" fill="#AEAEAE"/>
</g>
<g opacity="0.3">
<path d="M133.985 66.2026C134.203 66.5838 134.683 66.7141 135.059 66.4939L139.428 63.9212C139.804 63.6977 139.931 63.2075 139.712 62.8253L139.712 62.825C139.493 62.4444 139.012 62.3154 138.637 62.5373L134.273 65.11C134.272 65.1104 134.272 65.1107 134.271 65.1114C133.896 65.3319 133.767 65.8197 133.984 66.2009C133.985 66.2013 133.985 66.2019 133.985 66.2026Z" fill="#AEAEAE"/>
</g>
<g opacity="0.3">
<path d="M143.589 60.5797C143.808 60.9595 144.29 61.0875 144.664 60.8647L149.028 58.2919C149.029 58.2916 149.03 58.2913 149.03 58.2906C149.406 58.0701 149.534 57.5823 149.317 57.201C149.099 56.8175 148.616 56.6865 148.238 56.9077L143.874 59.4804C143.873 59.4807 143.872 59.4811 143.872 59.4817C143.496 59.7023 143.367 60.1901 143.585 60.5713C143.586 60.574 143.588 60.5766 143.589 60.5797Z" fill="#AEAEAE"/>
</g>
<path d="M141.648 60.3655C140.918 60.3655 140.326 60.9669 140.326 61.7086C140.326 62.4504 140.918 63.0515 141.648 63.0515C142.379 63.0515 142.971 62.4504 142.971 61.7086C142.972 60.9669 142.379 60.3655 141.648 60.3655Z" fill="#263238"/>
<path opacity="0.3" d="M1.68394 30.9754C1.14941 30.8063 0.850882 30.2296 1.01743 29.687C1.20373 26.2576 1.92192 23.2037 3.9929 21.1045C4.1318 20.6427 4.56792 20.341 5.04222 20.3791L17.2733 21.5522C17.4863 21.5752 17.6864 21.6665 17.845 21.8121C18.2604 22.1934 18.2927 22.8442 17.9171 23.2655L14.4146 27.0989C14.2932 27.2315 14.1392 27.3291 13.9687 27.3819L2.25962 30.9837C2.07069 31.0375 1.87089 31.0345 1.68394 30.9754Z" fill="black"/>
<path d="M123.765 24.6535C123.924 25.3996 123.532 26.1513 122.888 26.3328L114.846 28.6208C114.133 28.8256 113.537 28.966 112.61 29.0084L110.078 28.838L112.466 15.7422C117.982 19.4192 118.36 19.5869 123.312 23.867C123.537 24.0604 123.697 24.3387 123.765 24.6535Z" fill="#263238"/>
<path d="M71.376 3.95911L76.4281 26.3221L69.8195 25.8399L66.8016 4.1686C68.3482 4.07839 69.8728 4.00889 71.376 3.95911Z" fill="#263238"/>
<path d="M50.4067 21.6571L41.1245 9.88742C40.8576 9.57903 40.6887 9.17541 40.6456 8.74273C40.5412 7.68958 41.1936 6.74202 42.103 6.62575C44.0048 6.3638 46.0284 6.1112 48.052 5.86462" fill="#263238"/>
<path d="M116.45 26.9268C118.057 26.9462 119.375 25.6395 119.394 24.0086C119.409 22.6214 118.473 21.4095 117.142 21.0941L113.265 20.1713L112.279 26.7664L116.373 26.9252C116.399 26.9262 116.425 26.9268 116.45 26.9268Z" fill="white"/>
<path opacity="0.3" d="M113.414 26.8112L112.279 26.7664L113.266 20.1713L114.373 20.4372L113.414 26.8112Z" fill="black"/>
<path opacity="0.6" d="M69.9571 25.8409C69.9097 28.1587 69.9344 30.6105 70.1809 31.8631C70.7292 34.6463 75.0035 55.0052 75.0035 55.0052" stroke="black" stroke-width="0.5" stroke-miterlimit="10" stroke-linecap="round" stroke-linejoin="round"/>
<path opacity="0.6" d="M123.8 25.1449C123.8 25.1449 122.523 42.7483 120.577 46.309C118.68 49.7822 113.182 58.0346 113.182 58.0346" stroke="black" stroke-width="0.5" stroke-miterlimit="10" stroke-linecap="round" stroke-linejoin="round"/>
<path opacity="0.6" d="M128.262 23.4707C128.262 23.4707 141.929 26.8981 145.951 27.5523C149.253 28.0896 162.678 31.4054 166.719 33.0833" stroke="black" stroke-width="0.5" stroke-miterlimit="10" stroke-linecap="round" stroke-linejoin="round"/>
<path opacity="0.8" d="M31.3162 9.00127C31.9439 9.56793 32.0002 10.5436 31.442 11.1804L29.759 13.0378C29.5658 13.2459 29.3206 13.3973 29.0494 13.4751L8.43463 19.2791C8.07586 19.3773 7.70624 19.4275 7.33463 19.4285H3.23907C3.45203 19.2845 3.66991 19.1505 3.898 19.0272L23.783 8.40186L23.7844 8.40119C24.2863 8.1496 24.4924 7.53248 24.2445 7.02295L30.7024 8.66448C30.9298 8.72662 31.1401 8.84223 31.3162 9.00127Z" fill="#AEAEAE"/>
<path d="M99.592 17.8608C99.592 17.8608 97.1287 26.6538 95.9326 26.9659C93.7655 27.5309 86.4394 26.2545 86.5849 26.0103L87.1842 22.9123C87.1842 22.9123 94.6641 22.3661 94.8188 22.4275L97.1922 16.9136L99.592 17.8608Z" fill="#E1715B"/>
<path d="M97.1758 18.4706C97.1758 18.4706 96.4289 17.7649 96.4082 16.9089C96.3878 16.0529 96.1469 15.3747 96.1748 14.7372C96.2028 14.0997 96.7284 14.7759 96.9361 15.1932C97.1438 15.6105 97.3838 16.0813 97.6672 15.8722C97.9506 15.663 99.1842 12.8718 99.6098 12.6272C100.035 12.3826 99.9748 12.8975 99.9748 12.8975C99.9748 12.8975 100.292 12.2276 100.588 12.283C100.665 12.2974 100.82 12.4575 100.723 12.7856C100.503 13.524 99.9636 15.0499 99.9636 15.0499C99.9929 14.9617 100.791 13.1267 100.946 12.8678C101.149 12.5293 101.414 12.4745 101.603 12.6001C101.873 12.7789 100.96 15.0883 100.988 15.2129C100.988 15.2129 101.47 13.8654 101.881 13.8016C102.292 13.7375 102.034 14.6025 101.664 15.3215C101.325 15.9804 100.829 17.3633 100.42 17.9992C99.9162 18.7827 99.4044 19.194 98.5499 19.061C97.6961 18.9277 97.1758 18.4706 97.1758 18.4706Z" fill="#E1715B"/>
<path opacity="0.3" d="M99.9169 12.9767C99.6758 13.52 99.4591 14.0743 99.2678 14.6376" stroke="black" stroke-width="0.25" stroke-miterlimit="10" stroke-linecap="round" stroke-linejoin="round"/>
<path opacity="0.3" d="M100.819 15.7425C100.234 15.253 99.5049 14.9436 98.7505 14.8651" stroke="black" stroke-width="0.25" stroke-miterlimit="10" stroke-linecap="round" stroke-linejoin="round"/>
<path opacity="0.3" d="M97.8547 16.2059C98.1142 16.376 98.3128 16.64 98.4059 16.939C98.4989 17.238 98.4858 17.5701 98.3697 17.8605" stroke="black" stroke-width="0.25" stroke-miterlimit="10" stroke-linecap="round" stroke-linejoin="round"/>
<path d="M80.2823 14.9399C80.2823 14.9399 77.5418 12.5898 77.66 11.8046C77.7781 11.0194 78.2182 11.2616 78.2182 11.2616C78.2182 11.2616 77.2699 9.36516 78.204 9.03973C79.1385 8.7143 79.2033 9.03305 79.2033 9.03305C79.2033 9.03305 78.8334 7.48574 79.5743 7.02031C80.1381 6.6618 80.3774 7.37414 80.3774 7.37414C80.3774 7.37414 81.4537 5.67916 82.7417 5.70388C83.3785 5.75333 83.6919 6.16998 83.6017 6.66781C83.5978 6.68953 83.5932 6.71092 83.5879 6.73197C83.5879 6.73197 86.1878 5.58226 87.3954 6.30396C88.6031 7.02599 87.0278 7.81719 87.0278 7.81719C87.0278 7.81719 89.5609 7.54889 90.0569 8.58332C90.4512 9.40492 89.3239 9.95823 89.3239 9.95823C89.3239 9.95823 89.7238 10.0962 90.0655 10.4096C90.7165 11.0067 90.3186 12.139 89.4418 12.1711C89.4348 12.1714 89.4283 12.1714 89.4213 12.1718C89.2867 12.1758 89.0448 12.2055 88.9474 12.1113C88.9474 12.1113 89.3825 13.0425 88.4448 13.3415C87.5074 13.6406 87.0617 12.5376 87.0617 12.5376L80.2823 14.9399Z" fill="#263238"/>
<path d="M81.1447 20.9911C81.1447 20.9911 81.2974 19.6503 80.3577 16.391C80.3577 16.3877 80.5268 16.3108 80.5268 16.3075C80.3975 15.8517 80.2596 15.4304 80.1299 15.0655C80.1269 15.0549 80.1269 15.0515 80.1269 15.0515L84.5289 17.7976C84.4282 18.8411 84.8021 20.8555 85.0243 21.7062L83.8838 23.6658L81.1447 20.9911Z" fill="#E1715B"/>
<path opacity="0.2" d="M84.6083 19.2634L82.0771 18.691C82.3085 19.4889 83.0073 20.4338 84.7676 20.5063C84.7676 20.5063 84.5902 19.6132 84.6083 19.2634Z" fill="black"/>
<path d="M87.5478 10.0805C88.0675 11.1112 88.2568 13.3809 86.6361 12.9118C85.0157 12.443 86.6542 8.30864 87.5478 10.0805Z" fill="#263238"/>
<path d="M80.0878 12.8837C80.3912 15.7117 80.5061 17.3125 81.9869 18.6874C84.2143 20.7553 87.5291 19.3269 88.0653 16.4555C88.5481 13.8711 87.9708 9.68087 85.1793 8.71025C82.4293 7.75367 79.7843 10.0561 80.0878 12.8837Z" fill="#E1715B"/>
<path d="M84.1254 13.5109C84.1388 13.8012 84.3013 14.0274 84.4881 14.0167C84.6748 14.006 84.8156 13.7618 84.8021 13.4714C84.7886 13.1811 84.6262 12.9549 84.4394 12.9656C84.2526 12.9766 84.1119 13.2208 84.1254 13.5109Z" fill="#263238"/>
<path d="M86.932 13.4334C86.9455 13.7238 87.1079 13.9499 87.2947 13.9393C87.4815 13.9286 87.6222 13.6843 87.6087 13.3943C87.5952 13.104 87.4328 12.8774 87.246 12.8884C87.0589 12.8991 86.9185 13.1431 86.932 13.4334Z" fill="#263238"/>
<path d="M86.0114 13.316C86.0114 13.316 86.9834 14.7147 87.301 15.288C86.9199 15.6719 86.2267 15.5366 86.2267 15.5366L86.0114 13.316Z" fill="#FD504E"/>
<path d="M83.4326 11.9532C83.4776 11.9652 83.528 11.9529 83.5632 11.9161C83.9835 11.4814 84.469 11.571 84.474 11.5716C84.5467 11.586 84.6175 11.5379 84.6323 11.4644C84.6471 11.3909 84.5997 11.3197 84.5276 11.3053C84.502 11.3003 83.8937 11.1881 83.3723 11.7273C83.3203 11.7811 83.321 11.867 83.3736 11.9191C83.3904 11.9362 83.4108 11.9475 83.4326 11.9532Z" fill="#263238"/>
<path d="M88.1239 12.1227C88.1482 12.115 88.1706 12.0999 88.1877 12.0782C88.2345 12.0194 88.2259 11.9335 88.169 11.8864C87.5962 11.4123 87.0104 11.6048 86.983 11.6101C86.9129 11.6335 86.8738 11.7107 86.8962 11.7822C86.9185 11.8537 86.9929 11.8924 87.0627 11.8701C87.0867 11.861 87.54 11.7187 87.9998 12.0993C88.036 12.1287 88.0827 12.1357 88.1239 12.1227Z" fill="#263238"/>
<path d="M85.4136 17.433C85.4249 17.4375 85.3808 17.4251 85.4136 17.433V17.433Z" fill="#263238"/>
<path d="M85.8491 16.3349C85.3999 16.1909 84.5714 15.8861 84.1698 15.4581C84.1698 15.4581 84.0978 15.5831 84.056 15.7719C84.0181 15.9346 83.9977 16.1414 84.051 16.3559C84.1501 16.7475 84.4881 17.1708 85.3966 17.4268C85.4091 17.4308 85.4114 17.4318 85.4137 17.4324C85.4173 17.4334 85.4163 17.4328 85.4229 17.4348C85.4229 17.4348 85.9123 17.5618 86.1572 16.4271C86.1572 16.4271 86.0368 16.397 85.8491 16.3349Z" fill="#263238"/>
<path d="M85.8491 16.3349L85.676 16.6416C84.8212 16.3984 84.2518 16.1107 84.0559 15.7719C84.0977 15.5831 84.1698 15.4585 84.1698 15.4585C84.5714 15.8862 85.3998 16.1909 85.8491 16.3349Z" fill="#AEAEAE"/>
<path d="M85.3966 17.4268C84.4885 17.1709 84.1505 16.7475 84.0514 16.356C84.3575 16.4552 84.7156 16.6096 85.0043 16.8431C85.2255 17.0205 85.3377 17.23 85.3966 17.4268Z" fill="#FB504E"/>
<path d="M80.9244 15.074C81.1657 14.9406 81.4198 14.7946 81.5508 14.5494C81.6726 14.3215 81.6663 14.0469 81.6433 13.7883C81.6196 13.52 81.5817 13.2533 81.53 12.9891C81.7786 13.1157 82.0787 12.9139 82.2147 12.668C82.4181 12.3001 82.4052 11.8527 82.3756 11.4317C82.6923 11.5002 83.0507 11.4047 83.2591 11.1527C83.4674 10.9008 83.4872 10.4928 83.2699 10.2486C84.2982 10.3889 85.3534 10.3221 86.3566 10.0531C86.2875 10.1831 86.3678 10.3418 86.4567 10.4588C86.8161 10.9339 87.3533 11.2667 87.9339 11.3742C88.0192 11.39 88.1248 11.3926 88.1722 11.3191C88.1976 11.28 88.1976 11.2299 88.1946 11.1831C88.1607 10.6088 87.8352 10.0822 87.4076 9.70466C86.9801 9.3271 86.4561 9.08152 85.9278 8.87303C85.0513 8.52722 84.1339 8.26894 83.1955 8.20446C82.2571 8.14031 81.2947 8.2763 80.4459 8.68726C80.2602 8.77714 80.0759 8.88372 79.9462 9.04544C79.8231 9.19913 79.7579 9.39158 79.701 9.58103C79.3544 10.7341 79.2224 11.9533 79.3136 13.1554" fill="#263238"/>
<path d="M79.0944 15.3008C79.3518 16.0202 79.9137 16.5488 80.4808 16.8017C81.3339 17.1823 81.8997 16.4362 81.7793 15.5464C81.6707 14.7455 81.096 13.5828 80.1836 13.5778C79.2847 13.5734 78.8002 14.4782 79.0944 15.3008Z" fill="#E1715B"/>
<path opacity="0.2" d="M79.6961 14.4862C79.8008 14.3115 80.0275 14.2383 80.225 14.2777C80.4228 14.3172 80.5917 14.4512 80.7184 14.6102C80.8708 14.801 80.9728 15.0325 81.0114 15.2748" stroke="black" stroke-width="0.5" stroke-miterlimit="10" stroke-linecap="round" stroke-linejoin="round"/>
<path d="M85.2346 25.6058C85.2346 25.6058 93.4188 28.0338 96.3917 28.1391C99.3642 28.2443 105.943 26.8377 105.943 26.8377L105.572 23.7718L95.9151 24.2727L85.4153 20.7123L85.2346 25.6058Z" fill="#E1715B"/>
<path d="M88.1588 27.4785L86.5493 20.7249L82.4623 20.0016C82.2836 19.9748 78.9635 19.6978 77.9678 23.3952L77.7453 26.3338L88.1588 27.4785Z" fill="#263238"/>
<path d="M84.3091 26.8052C84.5356 26.8019 90.9065 27.9843 90.9065 27.9843L92.2172 22.7253C92.2172 22.7253 89.2558 21.4677 86.5489 20.7249C83.5238 19.8946 80.6865 19.637 80.0328 21.0704C78.7946 23.7868 84.3091 26.8052 84.3091 26.8052Z" fill="#263238"/>
<path opacity="0.3" d="M97.5029 24.2389C97.3482 24.2469 95.9151 24.3211 95.9151 24.3211L91.7843 22.8844C91.7843 22.8844 90.9289 22.5105 91.1468 22.586C91.3644 22.6618 93.0756 22.4814 93.1895 22.4994C93.303 22.5175 97.5029 24.2389 97.5029 24.2389Z" fill="black"/>
<path d="M108.743 22.3755C108.928 22.4891 111.117 24.7855 111.117 24.7855L110.69 27.6319L107.938 24.7481L108.743 22.3755Z" fill="#263238"/>
<path d="M105.446 28.3125C105.93 28.5547 106.516 28.3532 106.755 27.8621L111.121 18.8813C111.36 18.3901 111.161 17.7954 110.677 17.5531C110.193 17.3106 109.608 17.5124 109.369 18.0035L105.003 26.9843C104.764 27.4755 104.962 28.0702 105.446 28.3125Z" fill="#263238"/>
<path d="M102.302 24.0167L105.896 23.5269L106.936 22.2509C106.936 22.2509 108.762 22.0845 109.154 22.4149C109.546 22.7454 109.94 23.7982 109.94 23.7982C109.94 23.7982 110.416 24.6612 109.601 25.1143C109.601 25.1143 110.117 25.8824 109.197 26.4247C109.197 26.4247 109.875 26.8133 108.902 27.2196C107.929 27.6259 107.159 27.3896 106.563 27.1725C105.967 26.9553 104.913 27.0475 104.913 27.0475L101.645 27.6325L102.302 24.0167Z" fill="#E1715B"/>
</svg>
