<svg width="176" height="90" viewBox="0 0 176 90" fill="none" xmlns="http://www.w3.org/2000/svg">
<path d="M46.748 89.5H37.2044C35.3971 89.5 33.9319 88.0468 33.9319 86.2541V59.9736C33.9319 58.1809 35.3971 56.7277 37.2044 56.7277H46.748C48.5553 56.7277 50.0202 58.1809 50.0202 59.9736V86.2541C50.0205 88.0468 48.5553 89.5 46.748 89.5Z" fill="#263238"/>
<path d="M127.581 89.5H137.759C139.566 89.5 141.031 88.0468 141.031 86.2541V59.9736C141.031 58.1809 139.566 56.7277 137.759 56.7277H127.581C125.773 56.7277 124.308 58.1809 124.308 59.9736V86.2541C124.308 88.0468 125.773 89.5 127.581 89.5Z" fill="#263238"/>
<path d="M39.0678 39.6033C38.7645 39.6641 37.3176 41.2696 36.148 42.6168C35.1209 43.8001 34.5513 45.3282 34.5454 46.9163C34.5257 52.2484 34.6647 63.9741 35.0207 65.993C35.4582 68.4742 37.7553 77.1579 38.3021 77.6089C38.849 78.0599 42.5681 78.1727 42.5681 78.1727C42.5681 78.1727 43.1149 48.7383 42.5681 48.6255C42.0212 48.5127 39.0678 39.6033 39.0678 39.6033Z" fill="white"/>
<path opacity="0.3" d="M39.0678 39.6033C38.7645 39.6641 37.3176 41.2696 36.148 42.6168C35.1209 43.8001 34.5513 45.3282 34.5454 46.9163C34.5257 52.2484 34.6647 63.9741 35.0207 65.993C35.4582 68.4742 37.7553 77.1579 38.3021 77.6089C38.849 78.0599 42.5681 78.1727 42.5681 78.1727C42.5681 78.1727 43.1149 48.7383 42.5681 48.6255C42.0212 48.5127 39.0678 39.6033 39.0678 39.6033Z" fill="black"/>
<path d="M135.663 39.6033C135.978 39.6641 137.482 41.2696 138.697 42.6168C139.765 43.8001 140.357 45.3282 140.363 46.9163C140.383 52.2484 140.239 63.9741 139.869 65.993C139.415 68.4742 137.027 77.1579 136.458 77.6089C135.89 78.0599 132.024 78.1727 132.024 78.1727C132.024 78.1727 131.456 48.7383 132.024 48.6255C132.593 48.5127 135.663 39.6033 135.663 39.6033Z" fill="white"/>
<path opacity="0.3" d="M135.663 39.6033C135.978 39.6641 137.482 41.2696 138.697 42.6168C139.765 43.8001 140.357 45.3282 140.363 46.9163C140.383 52.2484 140.239 63.9741 139.869 65.993C139.415 68.4742 137.027 77.1579 136.458 77.6089C135.89 78.0599 132.024 78.1727 132.024 78.1727C132.024 78.1727 131.456 48.7383 132.024 48.6255C132.593 48.5127 135.663 39.6033 135.663 39.6033Z" fill="black"/>
<path d="M136.024 66.5928C136.024 66.5928 136.84 42.8858 136.115 38.4004C135.496 34.572 124.665 13.1793 121.505 6.99416C120.494 5.01623 119.029 3.31103 117.195 2.11828C115.911 1.28327 114.328 0.598378 112.55 0.54426C109.83 0.4614 92.9745 0.516433 87.4108 0.537224C81.8471 0.516433 64.9913 0.4614 62.2712 0.54426C60.4932 0.598378 58.9103 1.28327 57.6261 2.11828C55.7923 3.31073 54.3271 5.01623 53.3167 6.99416C50.1567 13.1796 39.3258 34.572 38.7068 38.4004C37.9818 42.8861 38.7978 66.5928 38.7978 66.5928L37.5287 69.7702L40.0666 78.9282C40.0666 78.9282 52.756 80.2365 54.9313 80.2365C57.1067 80.2365 58.9195 77.9938 58.9195 77.9938L85.6288 78.8184V78.9285L87.4108 78.8735L89.1928 78.9285V78.8184L115.902 77.9938C115.902 77.9938 117.715 80.2365 119.89 80.2365C122.066 80.2365 134.755 78.9282 134.755 78.9282L137.293 69.7702L136.024 66.5928Z" fill="white"/>
<path opacity="0.3" d="M132.622 60.5646C116.441 64.588 93.8534 65.1943 87.4105 65.2857C80.9676 65.1943 58.3798 64.588 42.1994 60.5646C42.1994 60.5646 40.2941 66.8041 42.1994 70.6172C42.1994 70.6172 70.2764 75.4659 87.4105 74.9656C104.544 75.4659 132.622 70.6172 132.622 70.6172C134.527 66.8041 132.622 60.5646 132.622 60.5646Z" fill="black"/>
<path d="M51.9514 28.4612L55.0223 21.3988C55.6496 19.9563 57.0401 19.0277 58.5737 19.0277H116.049C117.531 19.0277 118.883 19.8945 119.539 21.264L122.87 28.2199L51.9514 28.4612Z" fill="#263238"/>
<path opacity="0.5" d="M119.16 8.36761C117.786 5.21039 114.726 3.19638 111.37 3.24285H63.4516C60.0956 3.19638 57.0352 5.21039 55.6613 8.36761L47.5089 27.1031L85.6288 27.5161C85.6288 27.5391 85.6288 27.5547 85.6288 27.5547L87.4108 27.5354L89.1929 27.5547C89.1929 27.5547 89.1929 27.5388 89.1929 27.5161L127.313 27.1031L119.16 8.36761Z" fill="white"/>
<path d="M44.4001 37.9243C44.4001 37.9243 40.7512 39.7466 39.9149 42.0095C39.0786 44.2727 39.1548 48.4264 39.9149 49.8371C40.6751 51.2479 45.7191 52.6788 50.4814 53.2072C51.989 53.3744 58.411 53.8581 59.0712 53.2072C59.3459 52.9363 59.9075 48.4264 58.3872 46.4668C56.8669 44.5078 44.4001 37.9243 44.4001 37.9243Z" fill="#989898"/>
<path d="M44.2906 25.2688C44.2906 25.2688 42.6146 22.3553 42.0234 22.1859C41.4319 22.0165 35.6228 22.4201 34.5309 22.5455C34.1487 22.5892 32.8229 23.1347 33.0198 24.4558C33.2171 25.777 33.5127 27.9115 34.8598 28.5551C36.2072 29.1987 36.6813 29.0293 38.6458 29.0972C40.6104 29.1651 43.4691 28.9957 43.6991 28.7584C43.929 28.5212 43.962 28.1824 43.962 28.1824L44.8822 28.826L45.901 26.6579L44.2906 25.2688Z" fill="white"/>
<path d="M46.6676 68.5961C48.0005 68.5961 49.081 67.4821 49.081 66.1079C49.081 64.7336 48.0005 63.6196 46.6676 63.6196C45.3348 63.6196 44.2543 64.7336 44.2543 66.1079C44.2543 67.4821 45.3348 68.5961 46.6676 68.5961Z" fill="#A24E3F"/>
<path d="M46.5495 29.7145C46.5495 29.7145 44.8951 32.5445 44.0498 34.8398C43.5825 36.109 44.0394 37.5299 45.1633 38.293C45.1633 38.293 55.9791 44.3127 58.512 46.3399" stroke="#263238" stroke-miterlimit="10"/>
<path d="M55.9791 27.6018C56.0297 27.3205 57.0602 22.1841 57.5596 19.6965C57.7155 18.9193 58.3465 18.3659 59.0799 18.3631C62.5271 18.3503 72.1111 18.3188 75.4187 18.3546C76.0805 18.3616 76.6135 18.9456 76.6135 19.6632L77.4723 27.6018H55.9791Z" fill="#263238"/>
<path d="M71.33 17.0052H64.016C62.5065 17.0052 61.2827 15.7914 61.2827 14.2941V11.3867C61.2827 9.88939 62.5065 8.67554 64.016 8.67554H71.33C72.8396 8.67554 74.0633 9.88939 74.0633 11.3867V14.2941C74.0633 15.7914 72.8396 17.0052 71.33 17.0052Z" fill="#263238"/>
<g opacity="0.2">
<path d="M55.9791 27.6018C56.0297 27.3205 57.0602 22.1841 57.5596 19.6965C57.7155 18.9193 58.3465 18.3659 59.0799 18.3631C62.5271 18.3503 72.1111 18.3188 75.4187 18.3546C76.0805 18.3616 76.6135 18.9456 76.6135 19.6632L77.4723 27.6018H55.9791Z" fill="white"/>
<path d="M71.33 17.0052H64.016C62.5065 17.0052 61.2827 15.7914 61.2827 14.2941V11.3867C61.2827 9.88939 62.5065 8.67554 64.016 8.67554H71.33C72.8396 8.67554 74.0633 9.88939 74.0633 11.3867V14.2941C74.0633 15.7914 72.8396 17.0052 71.33 17.0052Z" fill="white"/>
</g>
<path opacity="0.3" d="M45.1143 29.0119L43.962 28.1824C43.9238 28.3548 43.8507 28.6688 43.565 28.8238C43.298 28.9688 42.8279 28.9593 42.5002 28.989L42.0665 29.9322C42.0665 29.9322 42.9448 29.6026 43.5841 29.3017C44.2234 29.0009 44.1704 28.6471 44.1704 28.6471L45.1143 29.0119Z" fill="black"/>
<path opacity="0.3" d="M44.7478 24.2274L44.2728 25.2202C44.6236 25.6507 45.7663 26.9437 45.7663 26.9437L44.7478 24.2274Z" fill="black"/>
<path d="M130.15 37.9243C130.15 37.9243 133.943 39.7466 134.812 42.0095C135.682 44.2727 135.602 48.4264 134.812 49.8371C134.022 51.2479 128.779 52.6788 123.829 53.2072C122.262 53.3744 115.587 53.8581 114.9 53.2072C114.615 52.9363 114.031 48.4264 115.611 46.4668C117.191 44.5078 130.15 37.9243 130.15 37.9243Z" fill="#989898"/>
<path d="M130.264 25.2688C130.264 25.2688 132.006 22.3553 132.621 22.1859C133.236 22.0165 139.274 22.4201 140.409 22.5455C140.806 22.5892 142.184 23.1347 141.979 24.4558C141.774 25.777 141.467 27.9115 140.067 28.5551C138.666 29.1987 138.173 29.0293 136.131 29.0972C134.09 29.1651 131.118 28.9957 130.879 28.7584C130.639 28.5212 130.606 28.1824 130.606 28.1824L129.649 28.826L128.59 26.6579L130.264 25.2688Z" fill="white"/>
<path opacity="0.3" d="M88.2301 48.7622V48.746C88.2301 48.746 87.5591 48.7576 86.4123 48.7622C85.2659 48.7576 84.5946 48.746 84.5946 48.746V48.7622C78.0114 48.7374 64.2641 48.4252 58.5117 46.34C58.5117 46.34 60.0496 51.5216 61.3313 52.9898C62.6131 54.4581 64.0656 55.4943 67.3975 55.8398C70.1567 56.1257 78.2827 56.4287 84.5946 56.6225C84.5955 56.6225 84.5964 56.6225 84.5973 56.6225C85.9071 56.6629 87.1407 56.5947 88.2298 56.6243C94.6379 56.5507 102.655 56.1269 105.427 55.8398C108.759 55.4943 110.212 54.4581 111.493 52.9898C112.774 51.5216 114.313 46.34 114.313 46.34C108.561 48.4252 94.8133 48.7374 88.2301 48.7622Z" fill="black"/>
<path d="M129.566 67.8675C130.545 66.8958 130.545 65.3203 129.566 64.3486C128.586 63.3769 126.998 63.3769 126.018 64.3486C125.038 65.3203 125.038 66.8958 126.018 67.8675C126.998 68.8392 128.586 68.8392 129.566 67.8675Z" fill="#A24E3F"/>
<path d="M128.215 29.5096C128.215 29.5096 129.612 32.5054 130.496 34.7919C130.993 36.0788 130.517 37.5348 129.357 38.2931C129.357 38.2931 117.967 44.8549 114.03 46.439" stroke="#263238" stroke-miterlimit="10"/>
<path d="M116.448 26.8631C116.395 26.5729 115.311 21.2733 114.786 18.7065C114.622 17.9045 113.959 17.3333 113.188 17.3306C109.563 17.3171 99.4855 17.2847 96.0078 17.3217C95.3117 17.329 94.7516 17.9314 94.7516 18.6719L93.8484 26.8631H116.448Z" fill="#263238"/>
<path opacity="0.2" d="M116.448 26.8631C116.395 26.5729 115.311 21.2733 114.786 18.7065C114.622 17.9045 113.959 17.3333 113.188 17.3306C109.563 17.3171 99.4855 17.2847 96.0078 17.3217C95.3117 17.329 94.7516 17.9314 94.7516 18.6719L93.8484 26.8631H116.448Z" fill="black"/>
<path d="M100.862 16.4881H109.435C110.945 16.4881 112.168 15.2743 112.168 13.777V10.2196C112.168 8.72227 110.945 7.50842 109.435 7.50842H100.862C99.3521 7.50842 98.1283 8.72227 98.1283 10.2196V13.777C98.1283 15.2743 99.3521 16.4881 100.862 16.4881Z" fill="#263238"/>
<path opacity="0.2" d="M100.862 16.4881H109.435C110.945 16.4881 112.168 15.2743 112.168 13.777V10.2196C112.168 8.72227 110.945 7.50842 109.435 7.50842H100.862C99.3521 7.50842 98.1283 8.72227 98.1283 10.2196V13.777C98.1283 15.2743 99.3521 16.4881 100.862 16.4881Z" fill="black"/>
<path opacity="0.3" d="M129.408 29.0119L130.606 28.1824C130.646 28.3548 130.722 28.6688 131.018 28.8238C131.296 28.9688 131.784 28.9593 132.125 28.989L132.576 29.9322C132.576 29.9322 131.663 29.6026 130.998 29.3017C130.334 29.0009 130.389 28.6471 130.389 28.6471L129.408 29.0119Z" fill="black"/>
<path opacity="0.3" d="M129.789 24.2274L130.283 25.2202C129.918 25.6507 128.73 26.9437 128.73 26.9437L129.789 24.2274Z" fill="black"/>
<path opacity="0.2" d="M87.946 31.0656C87.5039 31.0656 49.6629 30.5856 48.3362 30.8977C47.4765 31.1001 46.6516 33.3257 46.1775 34.8674C45.9084 35.7421 46.2493 36.6909 47.0002 37.1835C50.0994 39.2149 58.62 44.3078 67.8609 45.7314C79.4011 47.5094 86.2555 46.2555 88.2453 44.5457C90.2354 42.8359 88.3883 31.0656 87.946 31.0656Z" fill="#989898"/>
<path d="M98.5201 18.16C98.5873 18.26 99.9649 24.2602 99.9649 24.2602L98.5389 28.8226H92.5787C92.5787 28.8226 96.0032 20.5682 96.6548 19.5017C97.2975 18.4487 98.5201 18.16 98.5201 18.16Z" fill="white"/>
<path d="M111.777 18.16C111.709 18.26 110.332 24.2602 110.332 24.2602L111.758 28.8226H117.718C117.718 28.8226 114.294 20.5682 113.642 19.5017C112.999 18.4487 111.777 18.16 111.777 18.16Z" fill="white"/>
<path d="M111.942 18.16C110.603 18.0726 103.988 17.0089 98.5201 18.16L98.542 28.8223H112.902L111.942 18.16Z" fill="white"/>
<path d="M108.938 8.35871C108.938 8.35871 111.839 6.7379 110.117 4.99968C108.759 3.62837 107.557 3.82864 105.739 4.15672C101.285 4.96116 101.545 6.80181 101.545 6.80181L108.938 8.35871Z" fill="#263238"/>
<path d="M103.266 17.6277C103.266 17.6277 103.504 15.9332 102.504 12.9961C102.504 12.9931 102.659 12.9166 102.659 12.9133C102.521 12.5023 102.376 12.1235 102.241 11.7954C102.238 11.786 102.238 11.7826 102.238 11.7826L106.451 14.1204C106.396 15.0759 106.821 16.8991 107.061 17.6665C107.061 17.6665 107.64 19.0501 105.758 19.1929C104.382 19.2974 103.266 17.6277 103.266 17.6277Z" fill="#B97964"/>
<path opacity="0.2" d="M106.58 15.455L104.196 15.0291C104.442 15.7482 105.13 16.5832 106.776 16.5829C106.776 16.5829 106.576 15.7748 106.58 15.455Z" fill="black"/>
<path d="M102.12 9.80731C102.51 12.375 102.678 13.831 104.112 15.029C106.269 16.8305 109.309 15.402 109.701 12.7627C110.055 10.387 109.358 6.5871 106.715 5.80742C104.112 5.03906 101.73 7.23958 102.12 9.80731Z" fill="#B97964"/>
<path d="M101.513 6.73174C104.692 3.69529 107.925 5.39865 109.163 7.06318L103.617 7.1283C103.375 7.12402 103.238 7.37444 103.29 7.83215C103.29 7.83215 105.213 11.2517 102.563 13.1709C101.615 12.8111 101.422 11.2465 101.052 10.3375C100.501 8.98332 99.8052 6.9898 101.513 6.73174Z" fill="#263238"/>
<path d="M101.284 12.0494C101.551 12.6961 102.095 13.1566 102.634 13.3657C103.445 13.6803 103.66 12.8126 103.514 12.0057C103.382 11.2792 103.088 10.4063 102.236 10.4366C101.396 10.4668 100.978 11.3104 101.284 12.0494Z" fill="#B97964"/>
<path d="M105.617 10.181C105.64 10.4452 105.8 10.6457 105.975 10.6286C106.149 10.6118 106.271 10.3837 106.247 10.1195C106.224 9.85537 106.064 9.6548 105.89 9.67192C105.715 9.68873 105.593 9.91683 105.617 10.181Z" fill="#263238"/>
<path d="M108.308 10.0941C108.331 10.3583 108.492 10.5588 108.666 10.5417C108.84 10.5249 108.962 10.2968 108.939 10.0326C108.915 9.76845 108.755 9.56788 108.581 9.585C108.407 9.60182 108.284 9.82991 108.308 10.0941Z" fill="#263238"/>
<path d="M107.666 9.97668C107.666 9.97668 108.626 11.2156 108.944 11.7265C108.603 12.0913 107.95 11.9941 107.95 11.9941L107.666 9.97668Z" fill="#A24E3F"/>
<path d="M105.15 9.0381C105.191 9.05094 105.239 9.04177 105.273 9.00967C105.683 8.63053 106.133 8.73204 106.137 8.73296C106.205 8.74886 106.273 8.70789 106.289 8.64154C106.306 8.57519 106.265 8.50823 106.198 8.49233C106.174 8.48652 105.611 8.35933 105.103 8.82988C105.052 8.87697 105.049 8.95524 105.096 9.00477C105.112 9.02098 105.13 9.03199 105.15 9.0381Z" fill="#263238"/>
<path d="M107.153 12.9123C106.721 12.9532 106.366 12.7689 106.004 12.479" stroke="#263238" stroke-width="0.75" stroke-miterlimit="10" stroke-linecap="round" stroke-linejoin="round"/>
<path opacity="0.2" d="M101.814 11.2836C101.906 11.1203 102.114 11.0448 102.301 11.0733C102.486 11.1017 102.649 11.2176 102.773 11.3576C102.923 11.5258 103.027 11.7331 103.072 11.9526" stroke="black" stroke-width="0.5" stroke-miterlimit="10" stroke-linecap="round" stroke-linejoin="round"/>
<path d="M109.582 8.83261C109.605 8.82558 109.626 8.81213 109.642 8.79225C109.686 8.73905 109.678 8.66047 109.625 8.61705C109.093 8.18135 108.544 8.3538 108.519 8.35838C108.453 8.37948 108.416 8.4495 108.437 8.51493C108.457 8.58006 108.526 8.61614 108.592 8.59596C108.615 8.58801 109.039 8.4602 109.466 8.80999C109.5 8.83781 109.544 8.84454 109.582 8.83261Z" fill="#263238"/>
<g opacity="0.2">
<path d="M105.795 11.8822C105.565 12.1286 105.443 12.4699 105.463 12.8047C105.463 12.8047 105.309 12.5393 105.377 12.2589C105.446 11.9785 105.795 11.8822 105.795 11.8822Z" fill="black"/>
</g>
<path d="M106.673 16.275L108.175 17.6151L105.668 20.6314L102.045 17.602L103.119 16.0359L105.383 17.9117L106.673 16.275Z" fill="white"/>
<path opacity="0.8" d="M106.673 16.275L108.175 17.6151L105.668 20.6314L102.045 17.602L103.119 16.0359L105.383 17.9117L106.673 16.275Z" fill="#989898"/>
<path d="M97.7827 29.3635C97.7827 25.0637 101.297 21.5778 105.632 21.5778C109.967 21.5778 113.482 25.0637 113.482 29.3635" stroke="#263238" stroke-width="4" stroke-miterlimit="10"/>
<path d="M99.6785 22.34C99.6785 22.34 98.7106 21.7001 98.5639 22.5437C98.5639 22.5437 97.5374 22.5437 97.5666 23.4747C97.5666 23.4747 96.7455 23.5912 97.0975 24.5219C97.0975 24.5219 96.4523 24.6965 96.8922 25.511C97.3321 26.3255 98.1825 27.111 98.6227 27.0239C99.0626 26.9368 99.0626 26.3549 99.0626 26.3549C99.0626 26.3549 100.236 26.675 100.001 25.715C100.001 25.715 100.353 26.0057 100.588 25.5404C100.822 25.075 100.588 24.8423 100.588 24.8423C100.588 24.8423 100.881 25.1401 101.087 24.5693C101.292 23.9981 100.177 22.7473 99.6785 22.34Z" fill="#B97964"/>
<path d="M110.595 21.8105C110.595 21.8105 111.563 21.1705 111.71 22.0141C111.71 22.0141 112.737 22.0141 112.707 22.9451C112.707 22.9451 113.528 23.0616 113.176 23.9924C113.176 23.9924 113.822 24.1669 113.382 24.9815C112.942 25.796 112.091 26.5815 111.651 26.4943C111.211 26.4072 111.211 25.8254 111.211 25.8254C111.211 25.8254 110.038 26.1455 110.273 25.1854C110.273 25.1854 109.921 25.4765 109.686 25.0108C109.451 24.5455 109.686 24.3125 109.686 24.3125C109.686 24.3125 109.393 24.6103 109.188 24.0394C108.982 23.4686 110.097 22.2178 110.595 21.8105Z" fill="#B97964"/>
<path d="M127.328 26.9792L85.6828 27.262L47.597 26.9443L46.3051 29.9028L85.6828 29.978L128.62 29.9028L127.328 26.9792Z" fill="#263238"/>
<path d="M82.3076 48.7169L82.8576 51.5338C86.4743 52.134 90.0313 52.1744 93.5161 51.5338L93.9875 48.7169C90.5479 48.8297 86.5828 48.7499 82.3076 48.7169Z" fill="#263238"/>
<path d="M90.6216 6.21139C90.5615 5.79495 90.5045 5.34702 90.4425 5.02689C90.3932 4.77067 90.1657 4.58691 89.9028 4.58691H82.4186C82.1553 4.58691 81.9282 4.77037 81.8785 5.02689C81.8169 5.34702 81.7595 5.79495 81.6994 6.21169C81.6134 6.80822 82.0774 7.34238 82.6849 7.34238H85.1236H87.1972H89.6358C90.2437 7.34207 90.7076 6.80761 90.6216 6.21139Z" fill="#263238"/>
<path d="M86.6423 3.24316H85.679V4.9187H86.6423V3.24316Z" fill="#263238"/>
<path opacity="0.3" d="M52.2569 16.2524C52.2507 16.2665 82.7888 3.24255 82.7888 3.24255H91.2347L49.9499 21.5539L52.2569 16.2524Z" fill="white"/>
<path opacity="0.3" d="M48.7604 24.2274L99.3699 3.24219H111.37L54.4301 27.0461L47.5782 26.9437L48.7604 24.2274Z" fill="white"/>
</svg>
